<?xml version="1.0" encoding="UTF-8" standalone="no"?>
<svg
   xmlns:dc="http://purl.org/dc/elements/1.1/"
   xmlns:cc="http://creativecommons.org/ns#"
   xmlns:rdf="http://www.w3.org/1999/02/22-rdf-syntax-ns#"
   xmlns:svg="http://www.w3.org/2000/svg"
   xmlns="http://www.w3.org/2000/svg"
   xmlns:sodipodi="http://sodipodi.sourceforge.net/DTD/sodipodi-0.dtd"
   xmlns:inkscape="http://www.inkscape.org/namespaces/inkscape"
   viewBox="0 0 1122.6667 793.33331"
   height="793.33331"
   width="1122.6667"
   xml:space="preserve"
   id="svg2"
   version="1.1"
   sodipodi:docname="BuckledBeamStable.svg"
   inkscape:version="0.92.2 (5c3e80d, 2017-08-06)"><sodipodi:namedview
     pagecolor="#ffffff"
     bordercolor="#666666"
     borderopacity="1"
     objecttolerance="10"
     gridtolerance="10"
     guidetolerance="10"
     inkscape:pageopacity="0"
     inkscape:pageshadow="2"
     inkscape:window-width="2497"
     inkscape:window-height="1417"
     id="namedview30"
     showgrid="false"
     inkscape:zoom="1.4310093"
     inkscape:cx="662.51111"
     inkscape:cy="389.39087"
     inkscape:window-x="1042"
     inkscape:window-y="235"
     inkscape:window-maximized="1"
     inkscape:current-layer="g14" /><metadata
     id="metadata8"><rdf:RDF><cc:Work
         rdf:about=""><dc:format>image/svg+xml</dc:format><dc:type
           rdf:resource="http://purl.org/dc/dcmitype/StillImage" /><dc:title></dc:title></cc:Work></rdf:RDF></metadata><defs
     id="defs6"><clipPath
       id="clipPath20"
       clipPathUnits="userSpaceOnUse"><path
         id="path18"
         d="M 0,0 H 1075 V 746.00004 H 0 Z" /></clipPath></defs><g
     transform="matrix(1.3333333,0,0,-1.3333333,0,793.33333)"
     id="g10"><g
       transform="matrix(0.125,0,0,-0.125,0,595)"
       id="g12"><g
         transform="matrix(5.9973192,0,0,5.9975933,144,144.00027)"
         id="g14" /><g
         transform="matrix(5.9973192,0,0,5.9975933,144,144.00027)"
         id="g24" /><g
         transform="matrix(5.9973192,0,0,5.9975933,144,144.00027)"
         id="g28"><path
           id="path30"
           style="fill:none;stroke:#009bd8;stroke-width:4;stroke-linecap:butt;stroke-linejoin:round;stroke-miterlimit:10;stroke-dasharray:none;stroke-opacity:1"
           d="m 63,616.5 3,-0.0187 3,-0.056 3,-0.0931 3,-0.12977 3,-0.16589 3,-0.20148 3,-0.23608 3,-0.2699 3,-0.30255 3,-0.33392 3,-0.36408 3,-0.3927 3,-0.41974 3,-0.44513 3,-0.46862 3,-0.49036 3,-0.51007 3,-0.52765 3,-0.54321 3,-0.55658 3,-0.56769 3,-0.57642 3,-0.583 3,-0.5871 3,-0.58887 3,-0.58825 3,-0.58533 3,-0.58002 3,-0.57233 3,-0.56237 3,-0.55017 3,-0.53577 3,-0.51911 3,-0.50042 3,-0.47974 3,-0.45715 3,-0.43262 3,-0.40643 3,-0.37854 3,-0.34925 3,-0.31835 3,-0.28638 3,-0.25311 3,-0.21888 3,-0.18377 3,-0.14795 3,-0.11145 3,-0.0745 3,-0.0374 h 3 l 3,0.0374 3,0.0745 3,0.11145 3,0.14795 3.00002,0.18377 2.99998,0.21888 3,0.25311 3,0.28638 3,0.31835 3,0.34925 3.00002,0.37854 2.99998,0.40643 3,0.43262 3,0.45715 3,0.47974 3,0.50042 3,0.51911 3,0.53577 3,0.55017 3,0.56237 3,0.57233 3,0.58002 3,0.58533 3,0.58825 3,0.58887 3,0.5871 3,0.583 3,0.57642 3,0.56769 3,0.55658 3,0.54321 3,0.52765 3,0.51007 3,0.49036 3,0.46862 3,0.44513 3,0.41974 3,0.3927 3,0.36408 3,0.33392 3,0.30255 3,0.2699 3,0.23608 3,0.20148 3,0.16589 3,0.12977 3,0.0931 3,0.056 3,0.0187" /></g><g
         transform="matrix(5.9973192,0,0,5.9975933,144,144.00027)"
         id="g32"><path
           id="path34"
           style="fill:none;stroke:#00658c;stroke-width:4;stroke-linecap:butt;stroke-linejoin:bevel;stroke-miterlimit:1;stroke-dasharray:16, 16;stroke-dashoffset:0;stroke-opacity:1"
           d="m 63,616.5 3,0.0187 3,0.056 3,0.0931 3,0.12977 3,0.16589 3,0.20148 3,0.23608 3,0.2699 3,0.30255 3,0.33392 3,0.36408 3,0.3927 3,0.41974 3,0.44513 3,0.46862 3,0.49036 3,0.51007 3,0.52765 3,0.54321 3,0.55658 3,0.56769 3,0.57642 3,0.583 3,0.5871 3,0.58887 3,0.58825 3,0.58533 3,0.58002 3,0.57233 3,0.56237 3,0.55017 3,0.53577 3,0.5191 3,0.50043 3,0.47974 3,0.45715 3,0.43262 3,0.40643 3,0.37854 3,0.34925 3,0.31835 3,0.28638 3,0.25311 3,0.21888 3,0.18377 3,0.14795 3,0.11145 3,0.0745 3,0.0374 h 3 l 3,-0.0374 3,-0.0745 3,-0.11145 3,-0.14795 3.00002,-0.18377 2.99998,-0.21888 3,-0.25311 3,-0.28638 3,-0.31835 3,-0.34925 3.00002,-0.37854 2.99998,-0.40643 3,-0.43262 3,-0.45715 3,-0.47974 3,-0.50043 3,-0.5191 3,-0.53577 3,-0.55017 3,-0.56237 3,-0.57233 3,-0.58002 3,-0.58533 3,-0.58825 3,-0.58887 3,-0.5871 3,-0.583 3,-0.57642 3,-0.56769 3,-0.55658 3,-0.54321 3,-0.52765 3,-0.51007 3,-0.49036 3,-0.46862 3,-0.44513 3,-0.41974 3,-0.3927 3,-0.36408 3,-0.33392 3,-0.30255 3,-0.2699 3,-0.23608 3,-0.20148 3,-0.16589 3,-0.12977 3,-0.0931 3,-0.056 3,-0.0187" /></g><g
         id="g36"><g
           transform="matrix(5.9973192,0,0,5.9975933,2677.5105,3777.7112)"
           id="g38"><text
             id="text42"
             style="font-variant:normal;font-weight:normal;font-size:12px;font-family:'Times New Roman';-inkscape-font-specification:Times-Roman;writing-mode:lr-tb;fill:#000000;fill-opacity:1;fill-rule:nonzero;stroke:none"
             transform="translate(0,4)"><tspan
               id="tspan40"
               y="0"
               x="0 6.6719999 10.008 15.336 18.672001 24 27">State 1</tspan></text>
</g></g><g
         transform="matrix(5.9973192,0,0,5.9975933,144,144.00027)"
         id="g44"><path
           id="path46"
           style="fill:none;stroke:#009bd8;stroke-width:4;stroke-linecap:butt;stroke-linejoin:round;stroke-miterlimit:10;stroke-dasharray:none;stroke-opacity:1"
           d="M 379.95239,605.86151 H 419.4762" /></g><g
         id="g48"><g
           transform="matrix(5.9973192,0,0,5.9975933,2677.5105,3863.3387)"
           id="g50"><text
             id="text54"
             style="font-variant:normal;font-weight:normal;font-size:12px;font-family:'Times New Roman';-inkscape-font-specification:Times-Roman;writing-mode:lr-tb;fill:#000000;fill-opacity:1;fill-rule:nonzero;stroke:none"
             transform="translate(0,4)"><tspan
               id="tspan52"
               y="0"
               x="0 6.6719999 10.008 15.336 18.672001 24 27">State 2</tspan></text>
</g></g><g
         transform="matrix(5.9973192,0,0,5.9975933,144,144.00027)"
         id="g56"><path
           id="path58"
           style="fill:none;stroke:#00658c;stroke-width:4;stroke-linecap:butt;stroke-linejoin:bevel;stroke-miterlimit:1;stroke-dasharray:16, 16;stroke-dashoffset:0;stroke-opacity:1"
           d="M 379.95239,620.13849 H 419.4762" /></g></g></g></svg>