<?xml version="1.0" encoding="UTF-8" standalone="no"?>
<svg
   xmlns:dc="http://purl.org/dc/elements/1.1/"
   xmlns:cc="http://creativecommons.org/ns#"
   xmlns:rdf="http://www.w3.org/1999/02/22-rdf-syntax-ns#"
   xmlns:svg="http://www.w3.org/2000/svg"
   xmlns="http://www.w3.org/2000/svg"
   xmlns:sodipodi="http://sodipodi.sourceforge.net/DTD/sodipodi-0.dtd"
   xmlns:inkscape="http://www.inkscape.org/namespaces/inkscape"
   viewBox="0 0 1122.6667 793.33331"
   height="793.33331"
   width="1122.6667"
   xml:space="preserve"
   id="svg2"
   version="1.1"
   sodipodi:docname="BuckledBeamModes.svg"
   inkscape:version="0.92.2 (5c3e80d, 2017-08-06)"><sodipodi:namedview
     pagecolor="#ffffff"
     bordercolor="#666666"
     borderopacity="1"
     objecttolerance="10"
     gridtolerance="10"
     guidetolerance="10"
     inkscape:pageopacity="0"
     inkscape:pageshadow="2"
     inkscape:window-width="2497"
     inkscape:window-height="1417"
     id="namedview38"
     showgrid="false"
     inkscape:zoom="0.2529691"
     inkscape:cx="561.33337"
     inkscape:cy="396.66666"
     inkscape:window-x="1042"
     inkscape:window-y="235"
     inkscape:window-maximized="1"
     inkscape:current-layer="g14" /><metadata
     id="metadata8"><rdf:RDF><cc:Work
         rdf:about=""><dc:format>image/svg+xml</dc:format><dc:type
           rdf:resource="http://purl.org/dc/dcmitype/StillImage" /><dc:title></dc:title></cc:Work></rdf:RDF></metadata><defs
     id="defs6"><clipPath
       id="clipPath20"
       clipPathUnits="userSpaceOnUse"><path
         id="path18"
         d="M 0,0 H 1075 V 746.00004 H 0 Z" /></clipPath></defs><g
     transform="matrix(1.3333333,0,0,-1.3333333,0,793.33333)"
     id="g10"><g
       transform="matrix(0.125,0,0,-0.125,0,595)"
       id="g12"><g
         transform="matrix(5.9973192,0,0,5.9975933,144,144.00027)"
         id="g14" /><g
         transform="matrix(5.9973192,0,0,5.9975933,144,144.00027)"
         id="g24" /><g
         transform="matrix(5.9973192,0,0,5.9975933,144,144.00027)"
         id="g28"><path
           id="path30"
           style="fill:none;stroke:#009bd8;stroke-width:4;stroke-linecap:butt;stroke-linejoin:round;stroke-miterlimit:10;stroke-dasharray:none;stroke-opacity:1"
           d="m 63,616.5 3,-0.0187 3,-0.056 3,-0.0931 3,-0.12977 3,-0.16589 3,-0.20148 3,-0.23608 3,-0.2699 3,-0.30255 3,-0.33392 3,-0.36408 3,-0.3927 3,-0.41974 3,-0.44513 3,-0.46862 3,-0.49036 3,-0.51007 3,-0.52765 3,-0.54321 3,-0.55658 3,-0.56769 3,-0.57642 3,-0.583 3,-0.5871 3,-0.58887 3,-0.58825 3,-0.58533 3,-0.58002 3,-0.57233 3,-0.56237 3,-0.55017 3,-0.53577 3,-0.51911 3,-0.50042 3,-0.47974 3,-0.45715 3,-0.43262 3,-0.40643 3,-0.37854 3,-0.34925 3,-0.31835 3,-0.28638 3,-0.25311 3,-0.21888 3,-0.18377 3,-0.14795 3,-0.11145 3,-0.0745 3,-0.0374 h 3 l 3,0.0374 3,0.0745 3,0.11145 3,0.14795 3.00002,0.18377 2.99998,0.21888 3,0.25311 3,0.28638 3,0.31835 3,0.34925 3.00002,0.37854 2.99998,0.40643 3,0.43262 3,0.45715 3,0.47974 3,0.50042 3,0.51911 3,0.53577 3,0.55017 3,0.56237 3,0.57233 3,0.58002 3,0.58533 3,0.58825 3,0.58887 3,0.5871 3,0.583 3,0.57642 3,0.56769 3,0.55658 3,0.54321 3,0.52765 3,0.51007 3,0.49036 3,0.46862 3,0.44513 3,0.41974 3,0.3927 3,0.36408 3,0.33392 3,0.30255 3,0.2699 3,0.23608 3,0.20148 3,0.16589 3,0.12977 3,0.0931 3,0.056 3,0.0187" /></g><g
         transform="matrix(5.9973192,0,0,5.9975933,144,144.00027)"
         id="g32"><path
           id="path34"
           style="fill:none;stroke:#00658c;stroke-width:4;stroke-linecap:butt;stroke-linejoin:bevel;stroke-miterlimit:1;stroke-dasharray:16, 4, 8, 4;stroke-dashoffset:0;stroke-opacity:1"
           d="m 63,616.5 3,-0.038 3,-0.11249 3,-0.18451 3,-0.2536 3,-0.31891 3,-0.38013 3,-0.4367 3,-0.4881 3,-0.53394 3,-0.57379 3,-0.60748 3,-0.63452 3,-0.65485 3,-0.66827 3,-0.67463 3,-0.67382 3,-0.66608 3,-0.65112 3,-0.6294 3,-0.60089 3,-0.56592 3,-0.52472 3,-0.47766 3,-0.42517 3,-0.36755 3,-0.30548 3,-0.23926 3,-0.16956 3,-0.0969 3,-0.022 3,0.0548 3,0.13256 3,0.21088 3,0.28888 3,0.36609 3,0.44183 3,0.51557 3,0.58648 3,0.65418 3,0.71795 3,0.77753 3,0.83203 3,0.88141 3,0.92499 3,0.96252 3,0.99366 3,1.01818 3,1.03583 3,1.04657 3,1.05017 3,1.04663 3,1.03614 3,1.01861 3,0.9942 3.00002,0.9632 2.99998,0.92578 3,0.88232 3,0.83307 3,0.77863 3,0.71918 3.00002,0.65545 2.99998,0.58783 3,0.51697 3,0.4433 3,0.36761 3,0.29041 3,0.21234 3,0.13409 3,0.0563 3,-0.0205 3,-0.0955 3,-0.16815 3,-0.23797 3,-0.3042 3,-0.3664 3,-0.42407 3,-0.47669 3,-0.52386 3,-0.56519 3,-0.60028 3,-0.62884 3,-0.65082 3,-0.66577 3,-0.67377 3,-0.67468 3,-0.66846 3,-0.65521 3,-0.63501 3,-0.60803 3,-0.57453 3,-0.53479 3,-0.48901 3,-0.43774 3,-0.38129 3,-0.32019 3,-0.25488 3,-0.18592 3,-0.11395 3,-0.0394" /></g><g
         transform="matrix(5.9973192,0,0,5.9975933,144,144.00027)"
         id="g36"><path
           id="path38"
           style="fill:none;stroke:#004059;stroke-width:4;stroke-linecap:butt;stroke-linejoin:bevel;stroke-miterlimit:1;stroke-dasharray:16, 16;stroke-dashoffset:0;stroke-opacity:1"
           d="m 63,616.5 3,-0.0747 3,-0.22284 3,-0.36737 3,-0.50598 3,-0.63647 3,-0.75678 3,-0.86487 3,-0.95898 3,-1.03772 3,-1.09979 3,-1.14411 3,-1.1701 3,-1.17712 3,-1.16535 3,-1.1347 3,-1.08594 3,-1.01953 3,-0.93689 3,-0.83905 3,-0.72779 3,-0.60473 3,-0.47199 3,-0.33172 3,-0.18598 3,-0.0374 3,0.11188 3,0.2594 3,0.40265 3,0.53949 3,0.6676 3,0.78497 3,0.88977 3,0.98016 3,1.05488 3,1.11254 3,1.15235 3,1.17358 3,1.17597 3,1.15942 3,1.12427 3,1.07086 3,1.00043 3,0.91375 3,0.81244 3,0.698 3,0.57245 3,0.43756 3,0.29566 3,0.14904 h 3 l 3,-0.14904 3,-0.29566 3,-0.43756 3,-0.57245 3.00002,-0.698 2.99998,-0.81244 3,-0.91375 3,-1.00043 3,-1.07086 3,-1.12427 3.00002,-1.15942 2.99998,-1.17597 3,-1.17358 3,-1.15235 3,-1.11254 3,-1.05488 3,-0.98016 3,-0.88977 3,-0.78497 3,-0.6676 3,-0.53949 3,-0.40265 3,-0.2594 3,-0.11188 3,0.0374 3,0.18598 3,0.33172 3,0.47199 3,0.60473 3,0.72779 3,0.83905 3,0.93689 3,1.01953 3,1.08594 3,1.1347 3,1.16535 3,1.17712 3,1.1701 3,1.14411 3,1.09979 3,1.03772 3,0.95898 3,0.86487 3,0.75678 3,0.63647 3,0.50598 3,0.36737 3,0.22284 3,0.0747" /></g><g
         id="g40"><g
           transform="matrix(5.9973192,0,0,5.9975933,2677.6629,3778.5418)"
           id="g42"><text
             id="text46"
             style="font-variant:normal;font-weight:normal;font-size:12px;font-family:'Times New Roman';-inkscape-font-specification:Times-Roman;writing-mode:lr-tb;fill:#000000;fill-opacity:1;fill-rule:nonzero;stroke:none"
             transform="translate(0,4)"><tspan
               id="tspan44"
               y="0"
               x="0 10.668 16.667999 22.667999 27.996 30.996">Mode 1</tspan></text>
</g></g><g
         transform="matrix(5.9973192,0,0,5.9975933,144,144.00027)"
         id="g48"><path
           id="path50"
           style="fill:none;stroke:#009bd8;stroke-width:4;stroke-linecap:butt;stroke-linejoin:round;stroke-miterlimit:10;stroke-dasharray:none;stroke-opacity:1"
           d="M 379.95456,606 H 419.5" /></g><g
         id="g52"><g
           transform="matrix(5.9973192,0,0,5.9975933,2677.6629,3865.5069)"
           id="g54"><text
             id="text58"
             style="font-variant:normal;font-weight:normal;font-size:12px;font-family:'Times New Roman';-inkscape-font-specification:Times-Roman;writing-mode:lr-tb;fill:#000000;fill-opacity:1;fill-rule:nonzero;stroke:none"
             transform="translate(0,4)"><tspan
               id="tspan56"
               y="0"
               x="0 10.668 16.667999 22.667999 27.996 30.996">Mode 2</tspan></text>
</g></g><g
         transform="matrix(5.9973192,0,0,5.9975933,144,144.00027)"
         id="g60"><path
           id="path62"
           style="fill:none;stroke:#00658c;stroke-width:4;stroke-linecap:butt;stroke-linejoin:bevel;stroke-miterlimit:1;stroke-dasharray:16, 4, 8, 4;stroke-dashoffset:0;stroke-opacity:1"
           d="M 379.95456,620.5 H 419.5" /></g><g
         id="g64"><g
           transform="matrix(5.9973192,0,0,5.9975933,2677.6629,3952.472)"
           id="g66"><text
             id="text70"
             style="font-variant:normal;font-weight:normal;font-size:12px;font-family:'Times New Roman';-inkscape-font-specification:Times-Roman;writing-mode:lr-tb;fill:#000000;fill-opacity:1;fill-rule:nonzero;stroke:none"
             transform="translate(0,4)"><tspan
               id="tspan68"
               y="0"
               x="0 10.668 16.667999 22.667999 27.996 30.996">Mode 3</tspan></text>
</g></g><g
         transform="matrix(5.9973192,0,0,5.9975933,144,144.00027)"
         id="g72"><path
           id="path74"
           style="fill:none;stroke:#004059;stroke-width:4;stroke-linecap:butt;stroke-linejoin:bevel;stroke-miterlimit:1;stroke-dasharray:16, 16;stroke-dashoffset:0;stroke-opacity:1"
           d="M 379.95456,635 H 419.5" /></g></g></g></svg>